<svg width="25" height="24" viewBox="0 0 25 24" fill="none" xmlns="http://www.w3.org/2000/svg">
<path d="M20.1075 6.79051C19.796 5.22025 18.9903 3.79082 17.8083 2.71122C16.6263 1.63163 15.1299 0.958485 13.5379 0.790219C11.9459 0.621953 10.3418 0.967389 8.9602 1.77602C7.57859 2.58465 6.49189 3.81407 5.85901 5.28451C5.14926 5.20274 4.4303 5.2667 3.74613 5.47247C3.06197 5.67823 2.427 6.02147 1.8801 6.48117C1.3332 6.94087 0.885887 7.50736 0.565538 8.14595C0.245189 8.78454 0.0585491 9.48179 0.0170454 10.195C-0.0244584 10.9083 0.0800474 11.6225 0.324164 12.2939C0.568281 12.9653 0.946872 13.5799 1.43676 14.0999C1.92664 14.6199 2.51752 15.0345 3.1732 15.3182C3.82888 15.602 4.53557 15.7489 5.25001 15.75H19.5C20.6417 15.7513 21.7412 15.3186 22.5757 14.5396C23.4103 13.7606 23.9176 12.6935 23.9948 11.5544C24.0721 10.4154 23.7135 9.28956 22.9917 8.40501C22.2699 7.52046 21.2389 6.94333 20.1075 6.79051V6.79051ZM12.75 2.25001C14.2259 2.2497 15.6502 2.79341 16.7505 3.77718C17.8507 4.76094 18.5498 6.11573 18.714 7.58251C18.7344 7.7668 18.8223 7.937 18.9608 8.06027C19.0993 8.18354 19.2786 8.25113 19.464 8.25001H19.5C20.2957 8.25021 21.0586 8.56647 21.6211 9.12922C22.1836 9.69197 22.4995 10.4551 22.4993 11.2508C22.4991 12.0464 22.1828 12.8094 21.62 13.3719C21.0573 13.9343 20.2942 14.2502 19.4985 14.25H5.25001C4.71912 14.2497 4.19433 14.1368 3.71037 13.9185C3.22641 13.7003 2.7943 13.3818 2.44263 12.9841C2.09096 12.5864 1.82774 12.1185 1.67038 11.6115C1.51303 11.1045 1.46512 10.5698 1.52984 10.0429C1.59455 9.51594 1.77042 9.00876 2.04579 8.55487C2.32116 8.10099 2.68977 7.71074 3.12723 7.40996C3.56469 7.10917 4.06103 6.9047 4.58342 6.81006C5.1058 6.71543 5.64233 6.73279 6.15751 6.86101C6.3413 6.90685 6.53563 6.88145 6.70147 6.7899C6.8673 6.69836 6.99235 6.54746 7.05151 6.36751C7.44793 5.16927 8.21193 4.12646 9.23493 3.38728C10.2579 2.6481 11.4879 2.25015 12.75 2.25001V2.25001ZM5.62501 22.875C5.62501 23.1734 5.50648 23.4595 5.2955 23.6705C5.08452 23.8815 4.79837 24 4.50001 24C4.20164 24 3.91549 23.8815 3.70451 23.6705C3.49353 23.4595 3.37501 23.1734 3.37501 22.875C3.37501 22.5766 3.49353 22.2905 3.70451 22.0795C3.91549 21.8685 4.20164 21.75 4.50001 21.75C4.79837 21.75 5.08452 21.8685 5.2955 22.0795C5.50648 22.2905 5.62501 22.5766 5.62501 22.875ZM6.23701 17.289C6.42549 17.352 6.58127 17.4872 6.67014 17.6649C6.75902 17.8427 6.77371 18.0484 6.71101 18.237L5.96101 20.487C5.93276 20.5839 5.88526 20.674 5.82135 20.7521C5.75745 20.8301 5.67845 20.8945 5.58909 20.9413C5.49972 20.9882 5.40183 21.0165 5.30127 21.0246C5.20071 21.0327 5.09955 21.0204 5.00384 20.9885C4.90813 20.9566 4.81984 20.9057 4.74425 20.8389C4.66867 20.7721 4.60734 20.6907 4.56394 20.5996C4.52054 20.5085 4.49597 20.4097 4.49168 20.3089C4.4874 20.2081 4.50349 20.1074 4.53901 20.013L5.28901 17.763C5.35198 17.5745 5.48719 17.4187 5.66494 17.3299C5.84268 17.241 6.04843 17.2263 6.23701 17.289V17.289ZM11.625 22.875C11.625 23.1734 11.5065 23.4595 11.2955 23.6705C11.0845 23.8815 10.7984 24 10.5 24C10.2016 24 9.91549 23.8815 9.70451 23.6705C9.49353 23.4595 9.37501 23.1734 9.37501 22.875C9.37501 22.5766 9.49353 22.2905 9.70451 22.0795C9.91549 21.8685 10.2016 21.75 10.5 21.75C10.7984 21.75 11.0845 21.8685 11.2955 22.0795C11.5065 22.2905 11.625 22.5766 11.625 22.875V22.875ZM12.237 17.289C12.4255 17.352 12.5813 17.4872 12.6701 17.6649C12.759 17.8427 12.7737 18.0484 12.711 18.237L11.961 20.487C11.9328 20.5839 11.8853 20.674 11.8214 20.7521C11.7574 20.8301 11.6784 20.8945 11.5891 20.9413C11.4997 20.9882 11.4018 21.0165 11.3013 21.0246C11.2007 21.0327 11.0995 21.0204 11.0038 20.9885C10.9081 20.9566 10.8198 20.9057 10.7443 20.8389C10.6687 20.7721 10.6073 20.6907 10.5639 20.5996C10.5205 20.5085 10.496 20.4097 10.4917 20.3089C10.4874 20.2081 10.5035 20.1074 10.539 20.013L11.289 17.763C11.352 17.5745 11.4872 17.4187 11.6649 17.3299C11.8427 17.241 12.0484 17.2263 12.237 17.289V17.289ZM17.625 22.875C17.625 23.1734 17.5065 23.4595 17.2955 23.6705C17.0845 23.8815 16.7984 24 16.5 24C16.2016 24 15.9155 23.8815 15.7045 23.6705C15.4935 23.4595 15.375 23.1734 15.375 22.875C15.375 22.5766 15.4935 22.2905 15.7045 22.0795C15.9155 21.8685 16.2016 21.75 16.5 21.75C16.7984 21.75 17.0845 21.8685 17.2955 22.0795C17.5065 22.2905 17.625 22.5766 17.625 22.875ZM18.237 17.289C18.4255 17.352 18.5813 17.4872 18.6701 17.6649C18.759 17.8427 18.7737 18.0484 18.711 18.237L17.961 20.487C17.9328 20.5839 17.8853 20.674 17.8214 20.7521C17.7574 20.8301 17.6784 20.8945 17.5891 20.9413C17.4997 20.9882 17.4018 21.0165 17.3013 21.0246C17.2007 21.0327 17.0995 21.0204 17.0038 20.9885C16.9081 20.9566 16.8198 20.9057 16.7443 20.8389C16.6687 20.7721 16.6073 20.6907 16.5639 20.5996C16.5205 20.5085 16.496 20.4097 16.4917 20.3089C16.4874 20.2081 16.5035 20.1074 16.539 20.013L17.289 17.763C17.352 17.5745 17.4872 17.4187 17.6649 17.3299C17.8427 17.241 18.0484 17.2263 18.237 17.289V17.289Z" fill="white"/>
</svg>
