<svg width="25" height="24" viewBox="0 0 25 24" fill="none" xmlns="http://www.w3.org/2000/svg">
<path d="M20.1075 12.7905C19.796 11.2202 18.9903 9.79082 17.8083 8.71122C16.6263 7.63163 15.1299 6.95848 13.5379 6.79022C11.9459 6.62195 10.3418 6.96739 8.9602 7.77602C7.57859 8.58465 6.49189 9.81406 5.85901 11.2845C5.14926 11.2027 4.4303 11.2667 3.74613 11.4725C3.06197 11.6782 2.427 12.0215 1.8801 12.4812C1.3332 12.9409 0.885887 13.5074 0.565538 14.1459C0.245189 14.7845 0.0585491 15.4818 0.0170454 16.195C-0.0244584 16.9083 0.0800474 17.6225 0.324164 18.2939C0.568281 18.9653 0.946872 19.5799 1.43676 20.0999C1.92664 20.6199 2.51752 21.0345 3.1732 21.3182C3.82888 21.602 4.53557 21.7489 5.25001 21.75H19.5C20.6417 21.7513 21.7412 21.3186 22.5757 20.5396C23.4103 19.7606 23.9176 18.6935 23.9948 17.5544C24.0721 16.4154 23.7135 15.2896 22.9917 14.405C22.2699 13.5205 21.2389 12.9433 20.1075 12.7905ZM12.75 8.25001C14.2259 8.2497 15.6502 8.79341 16.7505 9.77718C17.8507 10.7609 18.5498 12.1157 18.714 13.5825C18.7344 13.7668 18.8223 13.937 18.9608 14.0603C19.0993 14.1835 19.2786 14.2511 19.464 14.25H19.5C20.2957 14.2502 21.0586 14.5665 21.6211 15.1292C22.1836 15.692 22.4995 16.4551 22.4993 17.2508C22.4991 18.0464 22.1828 18.8094 21.62 19.3719C21.0573 19.9343 20.2942 20.2502 19.4985 20.25H5.25001C4.71912 20.2497 4.19433 20.1368 3.71037 19.9185C3.22641 19.7003 2.7943 19.3818 2.44263 18.9841C2.09096 18.5864 1.82774 18.1185 1.67038 17.6115C1.51303 17.1045 1.46512 16.5698 1.52984 16.0429C1.59455 15.5159 1.77042 15.0088 2.04579 14.5549C2.32116 14.101 2.68977 13.7107 3.12723 13.41C3.56469 13.1092 4.06103 12.9047 4.58342 12.8101C5.1058 12.7154 5.64233 12.7328 6.15751 12.861C6.3413 12.9068 6.53563 12.8814 6.70147 12.7899C6.8673 12.6984 6.99235 12.5475 7.05151 12.3675C7.44793 11.1693 8.21193 10.1265 9.23493 9.38728C10.2579 8.6481 11.4879 8.25015 12.75 8.25001Z" fill="white"/>
</svg>
