<svg width="25" height="24" viewBox="0 0 25 24" fill="none" xmlns="http://www.w3.org/2000/svg">
<path d="M20.1075 6.41551C19.796 4.84525 18.9903 3.41582 17.8083 2.33622C16.6263 1.25663 15.1299 0.583485 13.5379 0.415219C11.9459 0.246953 10.3418 0.592389 8.9602 1.40102C7.57859 2.20965 6.49189 3.43907 5.85901 4.90951C5.14926 4.82774 4.4303 4.8917 3.74613 5.09747C3.06197 5.30323 2.427 5.64647 1.8801 6.10617C1.3332 6.56587 0.885887 7.13236 0.565538 7.77095C0.245189 8.40954 0.0585491 9.10679 0.0170454 9.82002C-0.0244584 10.5333 0.0800474 11.2475 0.324164 11.9189C0.568281 12.5903 0.946872 13.2049 1.43676 13.7249C1.92664 14.2449 2.51752 14.6595 3.1732 14.9432C3.82888 15.227 4.53557 15.3739 5.25001 15.375H19.5C20.6417 15.3763 21.7412 14.9436 22.5757 14.1646C23.4103 13.3856 23.9176 12.3185 23.9948 11.1794C24.0721 10.0404 23.7135 8.91456 22.9917 8.03001C22.2699 7.14546 21.2389 6.56833 20.1075 6.41551ZM12.75 1.87501C14.2259 1.8747 15.6502 2.41841 16.7505 3.40218C17.8507 4.38594 18.5498 5.74073 18.714 7.20751C18.7344 7.3918 18.8223 7.562 18.9608 7.68527C19.0993 7.80854 19.2786 7.87613 19.464 7.87501H19.5C20.2957 7.87521 21.0586 8.19147 21.6211 8.75422C22.1836 9.31697 22.4995 10.0801 22.4993 10.8758C22.4991 11.6714 22.1828 12.4344 21.62 12.9969C21.0573 13.5593 20.2942 13.8752 19.4985 13.875H5.25001C4.71912 13.8747 4.19433 13.7618 3.71037 13.5435C3.22641 13.3253 2.7943 13.0068 2.44263 12.6091C2.09096 12.2114 1.82774 11.7435 1.67038 11.2365C1.51303 10.7295 1.46512 10.1948 1.52984 9.66788C1.59455 9.14094 1.77042 8.63376 2.04579 8.17987C2.32116 7.72599 2.68977 7.33574 3.12723 7.03496C3.56469 6.73417 4.06103 6.5297 4.58342 6.43506C5.1058 6.34043 5.64233 6.35779 6.15751 6.48601C6.3413 6.53185 6.53563 6.50645 6.70147 6.4149C6.8673 6.32336 6.99235 6.17246 7.05151 5.99251C7.44793 4.79427 8.21193 3.75146 9.23493 3.01228C10.2579 2.2731 11.4879 1.87515 12.75 1.87501ZM3.93751 17.25C4.03696 17.25 4.13235 17.2895 4.20267 17.3598C4.273 17.4302 4.31251 17.5256 4.31251 17.625V18.48L5.06401 18.0495C5.15015 18.003 5.25109 17.9919 5.34524 18.0188C5.4394 18.0457 5.51931 18.1083 5.56789 18.1934C5.61647 18.2784 5.62987 18.379 5.60523 18.4738C5.58059 18.5686 5.51985 18.6499 5.43601 18.7005L4.69351 19.125L5.43601 19.5495C5.51985 19.6001 5.58059 19.6815 5.60523 19.7762C5.62987 19.871 5.61647 19.9716 5.56789 20.0567C5.51931 20.1417 5.4394 20.2043 5.34524 20.2312C5.25109 20.2581 5.15015 20.2471 5.06401 20.2005L4.31251 19.7715V20.625C4.31251 20.7245 4.273 20.8198 4.20267 20.8902C4.13235 20.9605 4.03696 21 3.93751 21C3.83805 21 3.74267 20.9605 3.67234 20.8902C3.60202 20.8198 3.56251 20.7245 3.56251 20.625V19.77L2.81101 20.2005C2.72486 20.2471 2.62393 20.2581 2.52977 20.2312C2.43561 20.2043 2.3557 20.1417 2.30712 20.0567C2.25854 19.9716 2.24514 19.871 2.26978 19.7762C2.29443 19.6815 2.35516 19.6001 2.43901 19.5495L3.18151 19.125L2.43901 18.7005C2.35516 18.6499 2.29443 18.5686 2.26978 18.4738C2.24514 18.379 2.25854 18.2784 2.30712 18.1934C2.3557 18.1083 2.43561 18.0457 2.52977 18.0188C2.62393 17.9919 2.72486 18.003 2.81101 18.0495L3.56251 18.4785V17.625C3.56251 17.5256 3.60202 17.4302 3.67234 17.3598C3.74267 17.2895 3.83805 17.25 3.93751 17.25ZM8.06251 20.25C8.16196 20.25 8.25735 20.2895 8.32767 20.3598C8.398 20.4302 8.43751 20.5256 8.43751 20.625V21.48L9.18901 21.0495C9.27515 21.003 9.37609 20.9919 9.47024 21.0188C9.5644 21.0457 9.64431 21.1083 9.69289 21.1934C9.74147 21.2784 9.75488 21.379 9.73023 21.4738C9.70559 21.5686 9.64485 21.6499 9.56101 21.7005L8.81851 22.125L9.56101 22.5495C9.64485 22.6001 9.70559 22.6815 9.73023 22.7762C9.75488 22.871 9.74147 22.9716 9.69289 23.0567C9.64431 23.1417 9.5644 23.2043 9.47024 23.2312C9.37609 23.2581 9.27515 23.2471 9.18901 23.2005L8.43751 22.7715V23.625C8.43751 23.7245 8.398 23.8198 8.32767 23.8902C8.25735 23.9605 8.16196 24 8.06251 24C7.96305 24 7.86767 23.9605 7.79734 23.8902C7.72701 23.8198 7.68751 23.7245 7.68751 23.625V22.77L6.93601 23.2005C6.84986 23.2471 6.74893 23.2581 6.65477 23.2312C6.56061 23.2043 6.4807 23.1417 6.43212 23.0567C6.38354 22.9716 6.37014 22.871 6.39478 22.7762C6.41943 22.6815 6.48016 22.6001 6.56401 22.5495L7.30651 22.125L6.56401 21.7005C6.48016 21.6499 6.41943 21.5686 6.39478 21.4738C6.37014 21.379 6.38354 21.2784 6.43212 21.1934C6.4807 21.1083 6.56061 21.0457 6.65477 21.0188C6.74893 20.9919 6.84986 21.003 6.93601 21.0495L7.68751 21.4785V20.625C7.68751 20.5256 7.72701 20.4302 7.79734 20.3598C7.86767 20.2895 7.96305 20.25 8.06251 20.25ZM16.3125 20.25C16.412 20.25 16.5073 20.2895 16.5777 20.3598C16.648 20.4302 16.6875 20.5256 16.6875 20.625V21.48L17.439 21.0495C17.5252 21.003 17.6261 20.9919 17.7202 21.0188C17.8144 21.0457 17.8943 21.1083 17.9429 21.1934C17.9915 21.2784 18.0049 21.379 17.9802 21.4738C17.9556 21.5686 17.8948 21.6499 17.811 21.7005L17.0685 22.125L17.811 22.5495C17.8948 22.6001 17.9556 22.6815 17.9802 22.7762C18.0049 22.871 17.9915 22.9716 17.9429 23.0567C17.8943 23.1417 17.8144 23.2043 17.7202 23.2312C17.6261 23.2581 17.5252 23.2471 17.439 23.2005L16.6875 22.7715V23.625C16.6875 23.7245 16.648 23.8198 16.5777 23.8902C16.5073 23.9605 16.412 24 16.3125 24C16.2131 24 16.1177 23.9605 16.0473 23.8902C15.977 23.8198 15.9375 23.7245 15.9375 23.625V22.77L15.186 23.2005C15.0999 23.2471 14.9989 23.2581 14.9048 23.2312C14.8106 23.2043 14.7307 23.1417 14.6821 23.0567C14.6335 22.9716 14.6201 22.871 14.6448 22.7762C14.6694 22.6815 14.7302 22.6001 14.814 22.5495L15.5565 22.125L14.814 21.7005C14.7302 21.6499 14.6694 21.5686 14.6448 21.4738C14.6201 21.379 14.6335 21.2784 14.6821 21.1934C14.7307 21.1083 14.8106 21.0457 14.9048 21.0188C14.9989 20.9919 15.0999 21.003 15.186 21.0495L15.9375 21.4785V20.625C15.9375 20.5256 15.977 20.4302 16.0473 20.3598C16.1177 20.2895 16.2131 20.25 16.3125 20.25ZM12.1875 17.25C12.287 17.25 12.3823 17.2895 12.4527 17.3598C12.523 17.4302 12.5625 17.5256 12.5625 17.625V18.48L13.314 18.0495C13.4002 18.003 13.5011 17.9919 13.5952 18.0188C13.6894 18.0457 13.7693 18.1083 13.8179 18.1934C13.8665 18.2784 13.8799 18.379 13.8552 18.4738C13.8306 18.5686 13.7698 18.6499 13.686 18.7005L12.9435 19.125L13.686 19.5495C13.7698 19.6001 13.8306 19.6815 13.8552 19.7762C13.8799 19.871 13.8665 19.9716 13.8179 20.0567C13.7693 20.1417 13.6894 20.2043 13.5952 20.2312C13.5011 20.2581 13.4002 20.2471 13.314 20.2005L12.5625 19.7715V20.625C12.5625 20.7245 12.523 20.8198 12.4527 20.8902C12.3823 20.9605 12.287 21 12.1875 21C12.088 21 11.9927 20.9605 11.9223 20.8902C11.852 20.8198 11.8125 20.7245 11.8125 20.625V19.77L11.061 20.2005C10.9749 20.2471 10.8739 20.2581 10.7798 20.2312C10.6856 20.2043 10.6057 20.1417 10.5571 20.0567C10.5085 19.9716 10.4951 19.871 10.5198 19.7762C10.5444 19.6815 10.6052 19.6001 10.689 19.5495L11.4315 19.125L10.689 18.7005C10.6052 18.6499 10.5444 18.5686 10.5198 18.4738C10.4951 18.379 10.5085 18.2784 10.5571 18.1934C10.6057 18.1083 10.6856 18.0457 10.7798 18.0188C10.8739 17.9919 10.9749 18.003 11.061 18.0495L11.8125 18.4785V17.625C11.8125 17.5256 11.852 17.4302 11.9223 17.3598C11.9927 17.2895 12.088 17.25 12.1875 17.25ZM20.4375 17.25C20.537 17.25 20.6323 17.2895 20.7027 17.3598C20.773 17.4302 20.8125 17.5256 20.8125 17.625V18.48L21.564 18.0495C21.6502 18.003 21.7511 17.9919 21.8452 18.0188C21.9394 18.0457 22.0193 18.1083 22.0679 18.1934C22.1165 18.2784 22.1299 18.379 22.1052 18.4738C22.0806 18.5686 22.0198 18.6499 21.936 18.7005L21.1935 19.125L21.936 19.5495C22.0198 19.6001 22.0806 19.6815 22.1052 19.7762C22.1299 19.871 22.1165 19.9716 22.0679 20.0567C22.0193 20.1417 21.9394 20.2043 21.8452 20.2312C21.7511 20.2581 21.6502 20.2471 21.564 20.2005L20.8125 19.7715V20.625C20.8125 20.7245 20.773 20.8198 20.7027 20.8902C20.6323 20.9605 20.537 21 20.4375 21C20.3381 21 20.2427 20.9605 20.1723 20.8902C20.102 20.8198 20.0625 20.7245 20.0625 20.625V19.77L19.311 20.2005C19.2249 20.2471 19.1239 20.2581 19.0298 20.2312C18.9356 20.2043 18.8557 20.1417 18.8071 20.0567C18.7585 19.9716 18.7451 19.871 18.7698 19.7762C18.7944 19.6815 18.8552 19.6001 18.939 19.5495L19.6815 19.125L18.939 18.7005C18.8552 18.6499 18.7944 18.5686 18.7698 18.4738C18.7451 18.379 18.7585 18.2784 18.8071 18.1934C18.8557 18.1083 18.9356 18.0457 19.0298 18.0188C19.1239 17.9919 19.2249 18.003 19.311 18.0495L20.0625 18.4785V17.625C20.0625 17.5256 20.102 17.4302 20.1723 17.3598C20.2427 17.2895 20.3381 17.25 20.4375 17.25Z" fill="white"/>
</svg>
