<svg width="25" height="24" viewBox="0 0 25 24" fill="none" xmlns="http://www.w3.org/2000/svg">
<path d="M12.469 1.719C12.5387 1.64915 12.6215 1.59374 12.7126 1.55593C12.8037 1.51812 12.9014 1.49866 13 1.49866C13.0987 1.49866 13.1964 1.51812 13.2875 1.55593C13.3786 1.59374 13.4614 1.64915 13.531 1.719L15.781 3.969C15.8508 4.03873 15.9061 4.12151 15.9438 4.21262C15.9816 4.30373 16.001 4.40138 16.001 4.5C16.001 4.59861 15.9816 4.69626 15.9438 4.78737C15.9061 4.87848 15.8508 4.96127 15.781 5.031C15.7113 5.10073 15.6285 5.15604 15.5374 5.19378C15.4463 5.23152 15.3487 5.25095 15.25 5.25095C15.1514 5.25095 15.0538 5.23152 14.9627 5.19378C14.8716 5.15604 14.7888 5.10073 14.719 5.031L13.75 4.0605V6.75C13.75 6.94891 13.671 7.13968 13.5304 7.28033C13.3897 7.42098 13.1989 7.5 13 7.5C12.8011 7.5 12.6104 7.42098 12.4697 7.28033C12.3291 7.13968 12.25 6.94891 12.25 6.75V4.0605L11.281 5.031C11.2113 5.10073 11.1285 5.15604 11.0374 5.19378C10.9463 5.23152 10.8487 5.25095 10.75 5.25095C10.6514 5.25095 10.5538 5.23152 10.4627 5.19378C10.3716 5.15604 10.2888 5.10073 10.219 5.031C10.1493 4.96127 10.094 4.87848 10.0562 4.78737C10.0185 4.69626 9.99909 4.59861 9.99909 4.5C9.99909 4.40138 10.0185 4.30373 10.0562 4.21262C10.094 4.12151 10.1493 4.03873 10.219 3.969L12.469 1.719ZM4.51453 6.5145C4.65518 6.37389 4.84591 6.29491 5.04479 6.29491C5.24366 6.29491 5.43439 6.37389 5.57503 6.5145L7.69604 8.6355C7.83265 8.77695 7.90825 8.9664 7.90654 9.16305C7.90483 9.3597 7.82595 9.54781 7.6869 9.68686C7.54784 9.82592 7.35973 9.90479 7.16309 9.9065C6.96644 9.90821 6.77699 9.83262 6.63554 9.696L4.51453 7.575C4.37393 7.43435 4.29495 7.24362 4.29495 7.04475C4.29495 6.84587 4.37393 6.65514 4.51453 6.5145ZM21.4855 6.5145C21.6261 6.65514 21.7051 6.84587 21.7051 7.04475C21.7051 7.24362 21.6261 7.43435 21.4855 7.575L19.3645 9.696C19.2954 9.76763 19.2126 9.82477 19.1211 9.86407C19.0296 9.90338 18.9312 9.92407 18.8316 9.92494C18.732 9.9258 18.6332 9.90682 18.5411 9.86911C18.4489 9.8314 18.3652 9.77571 18.2947 9.70529C18.2243 9.63487 18.1686 9.55114 18.1309 9.45896C18.0932 9.36679 18.0742 9.26803 18.0751 9.16845C18.076 9.06886 18.0967 8.97045 18.136 8.87894C18.1753 8.78744 18.2324 8.70468 18.304 8.6355L20.425 6.5145C20.5657 6.37389 20.7564 6.29491 20.9553 6.29491C21.1542 6.29491 21.3449 6.37389 21.4855 6.5145V6.5145ZM13 10.5C13.7901 10.4998 14.5662 10.7075 15.2505 11.1024C15.9348 11.4972 16.5031 12.0653 16.8982 12.7494C17.2933 13.4335 17.5014 14.2096 17.5014 14.9997C17.5015 15.7897 17.2936 16.5658 16.8985 17.25H9.10004C8.70496 16.5657 8.49702 15.7894 8.49715 14.9993C8.49728 14.2091 8.70546 13.4329 9.10076 12.7487C9.49606 12.0646 10.0645 11.4966 10.749 11.1018C11.4335 10.7071 12.2099 10.4995 13 10.5V10.5ZM18.565 17.25C18.9328 16.3393 19.0714 15.3522 18.9686 14.3754C18.8658 13.3986 18.5248 12.462 17.9755 11.6477C17.4262 10.8335 16.6854 10.1666 15.8181 9.70553C14.9509 9.24446 13.9837 9.00334 13.0015 9.00334C12.0193 9.00334 11.0522 9.24446 10.1849 9.70553C9.3177 10.1666 8.57691 10.8335 8.02761 11.6477C7.4783 12.462 7.13728 13.3986 7.03449 14.3754C6.93169 15.3522 7.07026 16.3393 7.43803 17.25H1.74854C1.54962 17.25 1.35886 17.329 1.21821 17.4697C1.07755 17.6103 0.998535 17.8011 0.998535 18C0.998535 18.1989 1.07755 18.3897 1.21821 18.5303C1.35886 18.671 1.54962 18.75 1.74854 18.75H24.2485C24.4474 18.75 24.6382 18.671 24.7789 18.5303C24.9195 18.3897 24.9985 18.1989 24.9985 18C24.9985 17.8011 24.9195 17.6103 24.7789 17.4697C24.6382 17.329 24.4474 17.25 24.2485 17.25H18.5635H18.565ZM1.00004 15C1.00004 14.8011 1.07905 14.6103 1.21971 14.4697C1.36036 14.329 1.55112 14.25 1.75004 14.25H4.75004C4.94895 14.25 5.13971 14.329 5.28036 14.4697C5.42102 14.6103 5.50004 14.8011 5.50004 15C5.50004 15.1989 5.42102 15.3897 5.28036 15.5303C5.13971 15.671 4.94895 15.75 4.75004 15.75H1.75004C1.55112 15.75 1.36036 15.671 1.21971 15.5303C1.07905 15.3897 1.00004 15.1989 1.00004 15ZM20.5 15C20.5 14.8011 20.5791 14.6103 20.7197 14.4697C20.8604 14.329 21.0511 14.25 21.25 14.25H24.25C24.4489 14.25 24.6397 14.329 24.7804 14.4697C24.921 14.6103 25 14.8011 25 15C25 15.1989 24.921 15.3897 24.7804 15.5303C24.6397 15.671 24.4489 15.75 24.25 15.75H21.25C21.0511 15.75 20.8604 15.671 20.7197 15.5303C20.5791 15.3897 20.5 15.1989 20.5 15Z" fill="white"/>
</svg>
