<svg width="25" height="26" viewBox="0 0 25 26" fill="none" xmlns="http://www.w3.org/2000/svg">
<path d="M6.26401 17.548C6.44983 17.618 6.60029 17.7589 6.6824 17.9397C6.76451 18.1205 6.77156 18.3265 6.70201 18.5125L4.45201 24.5125C4.42025 24.6082 4.3695 24.6966 4.30282 24.7722C4.23613 24.8479 4.15487 24.9093 4.06389 24.9529C3.97291 24.9964 3.87409 25.0211 3.77333 25.0256C3.67257 25.0301 3.57195 25.0141 3.47748 24.9788C3.38301 24.9435 3.29664 24.8895 3.22353 24.82C3.15041 24.7505 3.09207 24.667 3.05197 24.5745C3.01188 24.4819 2.99086 24.3823 2.99018 24.2814C2.9895 24.1805 3.00917 24.0806 3.04801 23.9875L5.29801 17.9875C5.33253 17.8952 5.38491 17.8106 5.45216 17.7385C5.5194 17.6664 5.60019 17.6083 5.68991 17.5675C5.77962 17.5267 5.87651 17.504 5.97501 17.5006C6.07352 17.4973 6.17172 17.5134 6.26401 17.548V17.548ZM10.764 17.548C10.9498 17.618 11.1003 17.7589 11.1824 17.9397C11.2645 18.1205 11.2716 18.3265 11.202 18.5125L8.95201 24.5125C8.92025 24.6082 8.8695 24.6966 8.80282 24.7722C8.73613 24.8479 8.65487 24.9093 8.56389 24.9529C8.47291 24.9964 8.37409 25.0211 8.27333 25.0256C8.17257 25.0301 8.07195 25.0141 7.97748 24.9788C7.88301 24.9435 7.79664 24.8895 7.72353 24.82C7.65041 24.7505 7.59207 24.667 7.55197 24.5745C7.51188 24.4819 7.49086 24.3823 7.49018 24.2814C7.4895 24.1805 7.50917 24.0806 7.54801 23.9875L9.79801 17.9875C9.83253 17.8952 9.88491 17.8106 9.95216 17.7385C10.0194 17.6664 10.1002 17.6083 10.1899 17.5675C10.2796 17.5267 10.3765 17.504 10.475 17.5006C10.5735 17.4973 10.6717 17.5134 10.764 17.548V17.548ZM15.264 17.548C15.4498 17.618 15.6003 17.7589 15.6824 17.9397C15.7645 18.1205 15.7716 18.3265 15.702 18.5125L13.452 24.5125C13.4202 24.6082 13.3695 24.6966 13.3028 24.7722C13.2361 24.8479 13.1549 24.9093 13.0639 24.9529C12.9729 24.9964 12.8741 25.0211 12.7733 25.0256C12.6726 25.0301 12.5719 25.0141 12.4775 24.9788C12.383 24.9435 12.2966 24.8895 12.2235 24.82C12.1504 24.7505 12.0921 24.667 12.052 24.5745C12.0119 24.4819 11.9909 24.3823 11.9902 24.2814C11.9895 24.1805 12.0092 24.0806 12.048 23.9875L14.298 17.9875C14.3325 17.8952 14.3849 17.8106 14.4522 17.7385C14.5194 17.6664 14.6002 17.6083 14.6899 17.5675C14.7796 17.5267 14.8765 17.504 14.975 17.5006C15.0735 17.4973 15.1717 17.5134 15.264 17.548V17.548ZM19.764 17.548C19.9498 17.618 20.1003 17.7589 20.1824 17.9397C20.2645 18.1205 20.2716 18.3265 20.202 18.5125L17.952 24.5125C17.8773 24.6916 17.7361 24.8347 17.558 24.9119C17.3799 24.989 17.1789 24.9941 16.9972 24.9262C16.8154 24.8582 16.6671 24.7224 16.5833 24.5474C16.4996 24.3724 16.4869 24.1717 16.548 23.9875L18.798 17.9875C18.8325 17.8952 18.8849 17.8106 18.9522 17.7385C19.0194 17.6664 19.1002 17.6083 19.1899 17.5675C19.2796 17.5267 19.3765 17.504 19.475 17.5006C19.5735 17.4973 19.6717 17.5134 19.764 17.548V17.548ZM20.1075 7.04051C19.796 5.47025 18.9903 4.04082 17.8083 2.96122C16.6263 1.88163 15.1299 1.20848 13.5379 1.04022C11.9459 0.871953 10.3418 1.21739 8.9602 2.02602C7.57859 2.83465 6.49189 4.06407 5.85901 5.53451C5.14926 5.45274 4.4303 5.5167 3.74613 5.72247C3.06197 5.92823 2.427 6.27147 1.8801 6.73117C1.3332 7.19087 0.885887 7.75736 0.565538 8.39595C0.245189 9.03454 0.0585491 9.73179 0.0170454 10.445C-0.0244584 11.1583 0.0800474 11.8725 0.324164 12.5439C0.568281 13.2153 0.946872 13.8299 1.43676 14.3499C1.92664 14.8699 2.51752 15.2845 3.1732 15.5682C3.82888 15.852 4.53557 15.9989 5.25001 16H19.5C20.6417 16.0013 21.7412 15.5686 22.5757 14.7896C23.4103 14.0106 23.9176 12.9435 23.9948 11.8044C24.0721 10.6654 23.7135 9.53956 22.9917 8.65501C22.2699 7.77046 21.2389 7.19333 20.1075 7.04051V7.04051ZM12.75 2.50001C14.2259 2.4997 15.6502 3.04341 16.7505 4.02718C17.8507 5.01094 18.5498 6.36573 18.714 7.83251C18.7344 8.0168 18.8223 8.187 18.9608 8.31027C19.0993 8.43354 19.2786 8.50113 19.464 8.50001H19.5C20.2957 8.50001 21.0587 8.81608 21.6213 9.37869C22.1839 9.94129 22.5 10.7044 22.5 11.5C22.5 12.2957 22.1839 13.0587 21.6213 13.6213C21.0587 14.1839 20.2957 14.5 19.5 14.5H5.25001C4.71912 14.4997 4.19433 14.3868 3.71037 14.1685C3.22641 13.9503 2.7943 13.6318 2.44263 13.2341C2.09096 12.8364 1.82774 12.3685 1.67038 11.8615C1.51303 11.3545 1.46512 10.8198 1.52984 10.2929C1.59455 9.76594 1.77042 9.25876 2.04579 8.80487C2.32116 8.35099 2.68977 7.96074 3.12723 7.65996C3.56469 7.35917 4.06103 7.1547 4.58342 7.06006C5.1058 6.96543 5.64233 6.98279 6.15751 7.11101C6.3413 7.15685 6.53563 7.13145 6.70147 7.0399C6.8673 6.94836 6.99235 6.79746 7.05151 6.61751C7.44793 5.41927 8.21193 4.37646 9.23493 3.63728C10.2579 2.8981 11.4879 2.50015 12.75 2.50001V2.50001Z" fill="white"/>
</svg>
