<svg width="26" height="24" viewBox="0 0 26 24" fill="none" xmlns="http://www.w3.org/2000/svg">
<path d="M11.5 12C12.1964 11.9999 12.8859 12.1384 13.5283 12.4074C14.1707 12.6763 14.7532 13.0704 15.2418 13.5667C15.7304 14.063 16.1153 14.6515 16.3743 15.298C16.6332 15.9446 16.7609 16.6361 16.75 17.3325C16.7482 17.4479 16.773 17.5623 16.8226 17.6665C16.8722 17.7708 16.9453 17.8622 17.036 17.9336C17.1267 18.0051 17.2327 18.0546 17.3457 18.0783C17.4587 18.102 17.5757 18.0994 17.6875 18.0705C18.02 17.9855 18.3675 17.9776 18.7035 18.0474C19.0395 18.1171 19.3552 18.2626 19.6265 18.4728C19.8977 18.683 20.1174 18.9524 20.2688 19.2603C20.4202 19.5683 20.4992 19.9068 20.5 20.25C20.5 20.8467 20.2629 21.419 19.841 21.841C19.419 22.2629 18.8467 22.5 18.25 22.5H5.49998C5.10114 22.4977 4.70674 22.416 4.33987 22.2595C3.973 22.103 3.64102 21.8749 3.36334 21.5886C3.08567 21.3023 2.86787 20.9634 2.7227 20.592C2.57753 20.2205 2.50789 19.8237 2.51787 19.425C2.52784 19.0263 2.61722 18.6336 2.78078 18.2698C2.94435 17.906 3.17881 17.5785 3.47045 17.3064C3.76209 17.0343 4.10506 16.8231 4.4793 16.6852C4.85354 16.5472 5.25152 16.4853 5.64998 16.503C5.82257 16.5115 5.99281 16.4602 6.13192 16.3577C6.27104 16.2552 6.3705 16.1078 6.41348 15.9405C6.7045 14.8127 7.36207 13.8136 8.28282 13.1003C9.20357 12.387 10.3353 12 11.5 12ZM18.2095 16.5C18.0407 14.9792 17.3603 13.5609 16.2797 12.4775C15.1991 11.3942 13.7825 10.7102 12.2621 10.5375C10.7418 10.3649 9.20786 10.714 7.91191 11.5275C6.61597 12.341 5.63487 13.5707 5.12948 15.015C3.97139 15.1098 2.89486 15.6489 2.12523 16.5194C1.3556 17.3899 0.952533 18.5244 1.00041 19.6854C1.04828 20.8464 1.54338 21.9438 2.38207 22.748C3.22076 23.5522 4.33802 24.0009 5.49998 24H18.25C19.2445 24 20.1984 23.6049 20.9016 22.9016C21.6049 22.1984 22 21.2445 22 20.25C22 19.2554 21.6049 18.3016 20.9016 17.5983C20.1984 16.8951 19.2445 16.5 18.25 16.5H18.2095V16.5Z" fill="white"/>
<path d="M17.929 2.66701C18.0153 2.538 18.0593 2.38542 18.0552 2.2303C18.0511 2.07519 17.9989 1.92518 17.9059 1.80094C17.813 1.67671 17.6837 1.58437 17.5361 1.53665C17.3884 1.48893 17.2296 1.48818 17.0815 1.53451C15.5284 2.0209 14.1975 3.04117 13.3245 4.41468C12.4515 5.78819 12.0927 7.42632 12.3115 9.03901C12.8481 9.09118 13.3781 9.19619 13.894 9.35251C13.6624 8.36536 13.7132 7.33297 14.0405 6.3733C14.3678 5.41362 14.9585 4.56539 15.745 3.92551C15.4852 4.92724 15.4545 5.97463 15.655 6.98989C15.8555 8.00515 16.2821 8.9622 16.9032 9.78996C17.5243 10.6177 18.324 11.2949 19.2427 11.7713C20.1614 12.2476 21.1756 12.5109 22.21 12.5415C21.2271 13.2247 20.0438 13.5595 18.8485 13.4925C19.0915 13.968 19.291 14.4705 19.4395 14.9925C20.5225 14.9464 21.5794 14.6452 22.524 14.1135C23.4686 13.5817 24.2743 12.8345 24.8755 11.9325C24.9618 11.8035 25.0058 11.6509 25.0017 11.4958C24.9976 11.3407 24.9454 11.1907 24.8524 11.0664C24.7595 10.9422 24.6302 10.8499 24.4826 10.8021C24.3349 10.7544 24.1761 10.7537 24.028 10.8C22.9641 11.134 21.8228 11.1297 20.7614 10.7877C19.7 10.4458 18.7707 9.78303 18.1018 8.89081C17.4329 7.99859 17.0572 6.92085 17.0265 5.80615C16.9959 4.69144 17.3117 3.59467 17.9305 2.66701H17.929Z" fill="white"/>
</svg>
