<svg width="25" height="25" viewBox="0 0 25 25" fill="none" xmlns="http://www.w3.org/2000/svg">
<path d="M20.1075 7.04051C19.796 5.47025 18.9903 4.04082 17.8083 2.96122C16.6263 1.88163 15.1299 1.20848 13.5379 1.04022C11.9459 0.871953 10.3418 1.21739 8.9602 2.02602C7.57859 2.83465 6.49189 4.06407 5.85901 5.53451C5.14926 5.45274 4.4303 5.5167 3.74613 5.72247C3.06197 5.92823 2.427 6.27147 1.8801 6.73117C1.3332 7.19087 0.885887 7.75736 0.565538 8.39595C0.245189 9.03454 0.0585491 9.73179 0.0170454 10.445C-0.0244584 11.1583 0.0800474 11.8725 0.324164 12.5439C0.568281 13.2153 0.946872 13.8299 1.43676 14.3499C1.92664 14.8699 2.51752 15.2845 3.1732 15.5682C3.82888 15.852 4.53557 15.9989 5.25001 16H19.5C20.6417 16.0013 21.7412 15.5686 22.5757 14.7896C23.4103 14.0106 23.9176 12.9435 23.9948 11.8044C24.0721 10.6654 23.7135 9.53956 22.9917 8.65501C22.2699 7.77046 21.2389 7.19333 20.1075 7.04051V7.04051ZM12.75 2.50001C14.2259 2.4997 15.6502 3.04341 16.7505 4.02718C17.8507 5.01094 18.5498 6.36573 18.714 7.83251C18.7344 8.0168 18.8223 8.187 18.9608 8.31027C19.0993 8.43354 19.2786 8.50113 19.464 8.50001H19.5C20.2957 8.50001 21.0587 8.81608 21.6213 9.37869C22.1839 9.94129 22.5 10.7044 22.5 11.5C22.5 12.2957 22.1839 13.0587 21.6213 13.6213C21.0587 14.1839 20.2957 14.5 19.5 14.5H5.25001C4.71912 14.4997 4.19433 14.3868 3.71037 14.1685C3.22641 13.9503 2.7943 13.6318 2.44263 13.2341C2.09096 12.8364 1.82774 12.3685 1.67038 11.8615C1.51303 11.3545 1.46512 10.8198 1.52984 10.2929C1.59455 9.76594 1.77042 9.25876 2.04579 8.80487C2.32116 8.35099 2.68977 7.96074 3.12723 7.65996C3.56469 7.35917 4.06103 7.1547 4.58342 7.06006C5.1058 6.96543 5.64233 6.98279 6.15751 7.11101C6.3413 7.15685 6.53563 7.13145 6.70147 7.0399C6.8673 6.94836 6.99235 6.79746 7.05151 6.61751C7.44793 5.41927 8.21193 4.37646 9.23493 3.63728C10.2579 2.8981 11.4879 2.50015 12.75 2.50001V2.50001ZM3.56251 21.25C3.66196 21.25 3.75735 21.2895 3.82767 21.3598C3.898 21.4302 3.93751 21.5256 3.93751 21.625V22.48L4.68901 22.0495C4.77515 22.003 4.87609 21.9919 4.97024 22.0188C5.0644 22.0457 5.14431 22.1083 5.19289 22.1934C5.24147 22.2784 5.25487 22.379 5.23023 22.4738C5.20559 22.5686 5.14485 22.6499 5.06101 22.7005L4.31851 23.125L5.06101 23.5495C5.14485 23.6001 5.20559 23.6815 5.23023 23.7762C5.25487 23.871 5.24147 23.9716 5.19289 24.0567C5.14431 24.1417 5.0644 24.2043 4.97024 24.2312C4.87609 24.2581 4.77515 24.2471 4.68901 24.2005L3.93751 23.7715V24.625C3.93751 24.7245 3.898 24.8198 3.82767 24.8902C3.75735 24.9605 3.66196 25 3.56251 25C3.46305 25 3.36767 24.9605 3.29734 24.8902C3.22702 24.8198 3.18751 24.7245 3.18751 24.625V23.77L2.43601 24.2005C2.34986 24.2471 2.24893 24.2581 2.15477 24.2312C2.06061 24.2043 1.9807 24.1417 1.93212 24.0567C1.88354 23.9716 1.87014 23.871 1.89478 23.7762C1.91943 23.6815 1.98016 23.6001 2.06401 23.5495L2.80651 23.125L2.06401 22.7005C1.98016 22.6499 1.91943 22.5686 1.89478 22.4738C1.87014 22.379 1.88354 22.2784 1.93212 22.1934C1.9807 22.1083 2.06061 22.0457 2.15477 22.0188C2.24893 21.9919 2.34986 22.003 2.43601 22.0495L3.18751 22.4785V21.625C3.18751 21.5256 3.22702 21.4302 3.29734 21.3598C3.36767 21.2895 3.46305 21.25 3.56251 21.25V21.25ZM6.33601 17.5795C6.51344 17.6686 6.64829 17.8245 6.71099 18.0129C6.7737 18.2013 6.75914 18.4068 6.67051 18.5845L5.92051 20.0845C5.87838 20.1757 5.81838 20.2575 5.74404 20.325C5.66971 20.3926 5.58256 20.4445 5.48778 20.4777C5.39299 20.511 5.2925 20.5248 5.19226 20.5185C5.09201 20.5121 4.99407 20.4857 4.90423 20.4408C4.81439 20.3959 4.73449 20.3334 4.66927 20.257C4.60405 20.1806 4.55483 20.0919 4.52455 19.9961C4.49426 19.9004 4.48352 19.7995 4.49296 19.6995C4.5024 19.5995 4.53183 19.5024 4.57951 19.414L5.32951 17.914C5.41863 17.7366 5.57447 17.6017 5.76286 17.539C5.95126 17.4763 6.15683 17.4909 6.33451 17.5795H6.33601ZM9.56251 21.25C9.66196 21.25 9.75735 21.2895 9.82767 21.3598C9.898 21.4302 9.93751 21.5256 9.93751 21.625V22.48L10.689 22.0495C10.7751 22.003 10.8761 21.9919 10.9702 22.0188C11.0644 22.0457 11.1443 22.1083 11.1929 22.1934C11.2415 22.2784 11.2549 22.379 11.2302 22.4738C11.2056 22.5686 11.1449 22.6499 11.061 22.7005L10.3185 23.125L11.061 23.5495C11.1449 23.6001 11.2056 23.6815 11.2302 23.7762C11.2549 23.871 11.2415 23.9716 11.1929 24.0567C11.1443 24.1417 11.0644 24.2043 10.9702 24.2312C10.8761 24.2581 10.7751 24.2471 10.689 24.2005L9.93751 23.7715V24.625C9.93751 24.7245 9.898 24.8198 9.82767 24.8902C9.75735 24.9605 9.66196 25 9.56251 25C9.46305 25 9.36767 24.9605 9.29734 24.8902C9.22701 24.8198 9.18751 24.7245 9.18751 24.625V23.77L8.43601 24.2005C8.34986 24.2471 8.24893 24.2581 8.15477 24.2312C8.06061 24.2043 7.9807 24.1417 7.93212 24.0567C7.88354 23.9716 7.87014 23.871 7.89478 23.7762C7.91943 23.6815 7.98016 23.6001 8.06401 23.5495L8.80651 23.125L8.06401 22.7005C7.98016 22.6499 7.91943 22.5686 7.89478 22.4738C7.87014 22.379 7.88354 22.2784 7.93212 22.1934C7.9807 22.1083 8.06061 22.0457 8.15477 22.0188C8.24893 21.9919 8.34986 22.003 8.43601 22.0495L9.18751 22.4785V21.625C9.18751 21.5256 9.22701 21.4302 9.29734 21.3598C9.36767 21.2895 9.46305 21.25 9.56251 21.25ZM12.336 17.5795C12.5134 17.6686 12.6483 17.8245 12.711 18.0129C12.7737 18.2013 12.7591 18.4068 12.6705 18.5845L11.9205 20.0845C11.8784 20.1757 11.8184 20.2575 11.744 20.325C11.6697 20.3926 11.5826 20.4445 11.4878 20.4777C11.393 20.511 11.2925 20.5248 11.1923 20.5185C11.092 20.5121 10.9941 20.4857 10.9042 20.4408C10.8144 20.3959 10.7345 20.3334 10.6693 20.257C10.604 20.1806 10.5548 20.0919 10.5245 19.9961C10.4943 19.9004 10.4835 19.7995 10.493 19.6995C10.5024 19.5995 10.5318 19.5024 10.5795 19.414L11.3295 17.914C11.4186 17.7366 11.5745 17.6017 11.7629 17.539C11.9513 17.4763 12.1568 17.4909 12.3345 17.5795H12.336ZM15.5625 21.25C15.662 21.25 15.7573 21.2895 15.8277 21.3598C15.898 21.4302 15.9375 21.5256 15.9375 21.625V22.48L16.689 22.0495C16.7752 22.003 16.8761 21.9919 16.9702 22.0188C17.0644 22.0457 17.1443 22.1083 17.1929 22.1934C17.2415 22.2784 17.2549 22.379 17.2302 22.4738C17.2056 22.5686 17.1448 22.6499 17.061 22.7005L16.3185 23.125L17.061 23.5495C17.1448 23.6001 17.2056 23.6815 17.2302 23.7762C17.2549 23.871 17.2415 23.9716 17.1929 24.0567C17.1443 24.1417 17.0644 24.2043 16.9702 24.2312C16.8761 24.2581 16.7752 24.2471 16.689 24.2005L15.9375 23.7715V24.625C15.9375 24.7245 15.898 24.8198 15.8277 24.8902C15.7573 24.9605 15.662 25 15.5625 25C15.4631 25 15.3677 24.9605 15.2973 24.8902C15.227 24.8198 15.1875 24.7245 15.1875 24.625V23.77L14.436 24.2005C14.3499 24.2471 14.2489 24.2581 14.1548 24.2312C14.0606 24.2043 13.9807 24.1417 13.9321 24.0567C13.8835 23.9716 13.8701 23.871 13.8948 23.7762C13.9194 23.6815 13.9802 23.6001 14.064 23.5495L14.8065 23.125L14.064 22.7005C13.9802 22.6499 13.9194 22.5686 13.8948 22.4738C13.8701 22.379 13.8835 22.2784 13.9321 22.1934C13.9807 22.1083 14.0606 22.0457 14.1548 22.0188C14.2489 21.9919 14.3499 22.003 14.436 22.0495L15.1875 22.4785V21.625C15.1875 21.5256 15.227 21.4302 15.2973 21.3598C15.3677 21.2895 15.4631 21.25 15.5625 21.25ZM18.336 17.5795C18.5134 17.6686 18.6483 17.8245 18.711 18.0129C18.7737 18.2013 18.7591 18.4068 18.6705 18.5845L17.9205 20.0845C17.8784 20.1757 17.8184 20.2575 17.744 20.325C17.6697 20.3926 17.5826 20.4445 17.4878 20.4777C17.393 20.511 17.2925 20.5248 17.1923 20.5185C17.092 20.5121 16.9941 20.4857 16.9042 20.4408C16.8144 20.3959 16.7345 20.3334 16.6693 20.257C16.604 20.1806 16.5548 20.0919 16.5245 19.9961C16.4943 19.9004 16.4835 19.7995 16.493 19.6995C16.5024 19.5995 16.5318 19.5024 16.5795 19.414L17.3295 17.914C17.4186 17.7366 17.5745 17.6017 17.7629 17.539C17.9513 17.4763 18.1568 17.4909 18.3345 17.5795H18.336Z" fill="white"/>
</svg>
