<svg width="25" height="24" viewBox="0 0 25 24" fill="none" xmlns="http://www.w3.org/2000/svg">
<path d="M25 11.25C25.0001 11.9675 24.7944 12.6699 24.4073 13.274C24.0202 13.878 23.4679 14.3584 22.816 14.658C22.5547 14.1995 22.2261 13.7829 21.841 13.422C22.4171 13.2651 22.9072 12.8857 23.2035 12.3674C23.4999 11.8491 23.5782 11.2343 23.4213 10.6582C23.2643 10.0822 22.885 9.59209 22.3667 9.29573C21.8484 8.99938 21.2336 8.92106 20.6575 9.078C20.5539 9.1061 20.4454 9.1116 20.3394 9.09414C20.2334 9.07668 20.1324 9.03665 20.0432 8.97678C19.9541 8.9169 19.8788 8.83857 19.8225 8.74709C19.7662 8.6556 19.7303 8.55309 19.717 8.4465C19.6109 7.58749 19.2594 6.77729 18.7045 6.11303C18.1496 5.44877 17.4149 4.95863 16.5885 4.70136C15.7621 4.4441 14.879 4.43062 14.0451 4.66255C13.2112 4.89448 12.4619 5.36198 11.887 6.009C11.2461 5.97958 10.6039 6.02387 9.97302 6.141C10.5483 5.08172 11.4291 4.22014 12.5008 3.66843C13.5725 3.11671 14.7855 2.90042 15.9818 3.0477C17.1782 3.19498 18.3025 3.69901 19.2084 4.49418C20.1143 5.28935 20.7599 6.33883 21.061 7.506C21.5686 7.48038 22.0762 7.55822 22.5528 7.7348C23.0294 7.91137 23.4651 8.18299 23.8335 8.53316C24.2019 8.88332 24.4953 9.30472 24.6958 9.77176C24.8964 10.2388 24.9999 10.7417 25 11.25Z" fill="white"/>
<path d="M11.5 7.5C13.1606 7.49968 14.763 8.11149 16.0008 9.21841C17.2386 10.3253 18.025 11.8497 18.2095 13.5H18.25C19.2445 13.5 20.1984 13.8951 20.9016 14.5983C21.6049 15.3016 22 16.2554 22 17.25C22 18.2446 21.6049 19.1984 20.9016 19.9017C20.1984 20.6049 19.2445 21 18.25 21H5.49998C4.33802 21.0009 3.22076 20.5523 2.38207 19.748C1.54338 18.9438 1.04828 17.8464 1.00041 16.6854C0.952533 15.5244 1.3556 14.3899 2.12523 13.5194C2.89486 12.6489 3.97139 12.1098 5.12948 12.015C5.59302 10.6954 6.45488 9.5522 7.59603 8.74343C8.73718 7.93466 10.1013 7.50018 11.5 7.5V7.5ZM16.75 14.25C16.7509 12.9713 16.285 11.7362 15.4399 10.7766C14.5948 9.81693 13.4285 9.19873 12.1599 9.038C10.8913 8.87726 9.60771 9.18504 8.54995 9.90357C7.4922 10.6221 6.73305 11.702 6.41498 12.9405C6.37195 13.1081 6.27227 13.2557 6.13284 13.3582C5.99341 13.4608 5.82282 13.5119 5.64998 13.503C5.25152 13.4853 4.85354 13.5473 4.4793 13.6852C4.10506 13.8232 3.76209 14.0344 3.47045 14.3064C3.17881 14.5785 2.94435 14.906 2.78078 15.2698C2.61722 15.6336 2.52784 16.0263 2.51787 16.425C2.50789 16.8238 2.57753 17.2205 2.7227 17.592C2.86787 17.9635 3.08567 18.3023 3.36334 18.5886C3.64102 18.8749 3.973 19.103 4.33987 19.2595C4.70674 19.416 5.10114 19.4977 5.49998 19.5H18.25C18.569 19.4993 18.8842 19.4307 19.1747 19.2988C19.4653 19.167 19.7244 18.9748 19.935 18.7352C20.1456 18.4955 20.3028 18.2138 20.3962 17.9088C20.4896 17.6037 20.5171 17.2823 20.4768 16.9658C20.4365 16.6493 20.3293 16.345 20.1625 16.0731C19.9956 15.8012 19.7728 15.5679 19.5089 15.3887C19.245 15.2094 18.9459 15.0884 18.6317 15.0335C18.3174 14.9787 17.995 14.9913 17.686 15.0705C17.5743 15.0991 17.4575 15.1016 17.3447 15.0777C17.2319 15.0539 17.1261 15.0043 17.0355 14.9329C16.945 14.8615 16.8721 14.7702 16.8226 14.6661C16.7731 14.5619 16.7482 14.4478 16.75 14.3325V14.25Z" fill="white"/>
</svg>
