<svg width="25" height="25" viewBox="0 0 25 25" fill="none" xmlns="http://www.w3.org/2000/svg">
<path d="M20.1075 7.04051C19.796 5.47025 18.9903 4.04082 17.8083 2.96122C16.6263 1.88163 15.1299 1.20848 13.5379 1.04022C11.9459 0.871953 10.3418 1.21739 8.9602 2.02602C7.57859 2.83465 6.49189 4.06407 5.85901 5.53451C5.14926 5.45274 4.4303 5.5167 3.74613 5.72247C3.06197 5.92823 2.427 6.27147 1.8801 6.73117C1.3332 7.19087 0.885887 7.75736 0.565538 8.39595C0.245189 9.03454 0.0585491 9.73179 0.0170454 10.445C-0.0244584 11.1583 0.0800474 11.8725 0.324164 12.5439C0.568281 13.2153 0.946872 13.8299 1.43676 14.3499C1.92664 14.8699 2.51752 15.2845 3.1732 15.5682C3.82888 15.852 4.53557 15.9989 5.25001 16H19.5C20.6417 16.0013 21.7412 15.5686 22.5757 14.7896C23.4103 14.0106 23.9176 12.9435 23.9948 11.8044C24.0721 10.6654 23.7135 9.53956 22.9917 8.65501C22.2699 7.77046 21.2389 7.19333 20.1075 7.04051V7.04051ZM12.75 2.50001C14.2259 2.4997 15.6502 3.04341 16.7505 4.02718C17.8507 5.01094 18.5498 6.36573 18.714 7.83251C18.7344 8.01679 18.8223 8.187 18.9608 8.31027C19.0993 8.43354 19.2786 8.50113 19.464 8.50001H19.5C20.2957 8.50001 21.0587 8.81608 21.6213 9.37869C22.1839 9.94129 22.5 10.7044 22.5 11.5C22.5 12.2957 22.1839 13.0587 21.6213 13.6213C21.0587 14.1839 20.2957 14.5 19.5 14.5H5.25001C4.71912 14.4997 4.19433 14.3868 3.71037 14.1685C3.22641 13.9503 2.7943 13.6318 2.44263 13.2341C2.09096 12.8364 1.82774 12.3685 1.67038 11.8615C1.51303 11.3545 1.46512 10.8198 1.52984 10.2929C1.59455 9.76594 1.77042 9.25876 2.04579 8.80487C2.32116 8.35099 2.68977 7.96074 3.12723 7.65996C3.56469 7.35917 4.06103 7.1547 4.58342 7.06006C5.1058 6.96543 5.64233 6.98279 6.15751 7.11101C6.3413 7.15685 6.53563 7.13145 6.70147 7.0399C6.8673 6.94836 6.99235 6.79746 7.05151 6.61751C7.44793 5.41927 8.21193 4.37646 9.23493 3.63728C10.2579 2.8981 11.4879 2.50015 12.75 2.50001V2.50001ZM10.5795 17.914C10.6419 17.7896 10.7376 17.685 10.856 17.6118C10.9744 17.5387 11.1108 17.5 11.25 17.5H12.75C12.8688 17.5001 12.9858 17.5284 13.0915 17.5826C13.1972 17.6367 13.2886 17.7153 13.358 17.8116C13.4274 17.908 13.4729 18.0195 13.4909 18.1369C13.5088 18.2543 13.4985 18.3743 13.461 18.487L13.041 19.75H14.25C14.3911 19.7502 14.5293 19.7902 14.6487 19.8655C14.7681 19.9407 14.8639 20.0481 14.925 20.1753C14.9861 20.3025 15.0101 20.4444 14.9942 20.5846C14.9782 20.7248 14.9231 20.8577 14.835 20.968L11.835 24.718C11.728 24.851 11.5788 24.9434 11.4121 24.9802C11.2454 25.0169 11.0711 24.9956 10.9181 24.9199C10.7652 24.8442 10.6426 24.7186 10.5706 24.5638C10.4987 24.409 10.4817 24.2343 10.5225 24.0685L11.04 22H9.75001C9.62211 22 9.49634 21.9673 9.38465 21.905C9.27296 21.8427 9.17905 21.7528 9.11186 21.644C9.04467 21.5352 9.00643 21.411 9.00077 21.2832C8.9951 21.1554 9.02221 21.0283 9.07951 20.914L10.5795 17.914Z" fill="white"/>
</svg>
